<svg width="109" height="108" viewBox="0 0 109 108" fill="none" xmlns="http://www.w3.org/2000/svg">
<path fill-rule="evenodd" clip-rule="evenodd" d="M85.5689 79.8476L97.3543 86.6889C83.3172 105.09 59.0991 112.475 37.1825 105.038C15.2659 97.6008 0.544391 77.0014 0.605659 53.8573C0.666927 30.7133 15.4973 10.1921 37.453 2.87089C59.4086 -4.45034 83.5873 3.06303 97.5268 21.5384L85.7126 28.3223C74.8845 15.1517 56.9576 10.1899 40.8985 15.9186C24.8394 21.6473 14.1004 36.835 14.0529 53.8852C14.0053 70.9355 24.6594 86.1829 40.6863 92.0011C56.7132 97.8193 74.6675 92.9575 85.5689 79.8476V79.8476Z" fill="#F2F2F2"/>
<path fill-rule="evenodd" clip-rule="evenodd" d="M61.1931 65.6905L73.6684 72.8768C65.9867 80.6835 54.3443 83.0646 44.2144 78.9007C34.0845 74.7368 27.4822 64.8562 27.5114 53.904C27.5407 42.9517 34.1956 33.1065 44.3476 28.9967C54.4996 24.8869 66.1291 27.3301 73.769 35.1778L61.2506 42.364C59.2093 41.1733 56.8875 40.5482 54.5242 40.5531C47.0866 40.5531 41.0572 46.5825 41.0572 54.0201C41.0572 61.4577 47.0866 67.4871 54.5242 67.4871C56.8672 67.4903 59.1688 66.8703 61.1931 65.6905V65.6905Z" fill="#F2F2F2"/>
<path fill-rule="evenodd" clip-rule="evenodd" d="M108.394 54.1497C108.366 61.3336 106.9 68.4392 104.082 75.0473L92.2967 68.206L80.3963 61.2928C80.3963 61.106 80.4969 60.9191 80.5401 60.7323C80.5401 60.9191 80.4394 61.106 80.382 61.2785L67.921 54.0922L80.4251 46.906C80.4251 47.0928 80.5257 47.2653 80.5688 47.4665C80.5311 47.2772 80.4831 47.0901 80.4251 46.906L92.3686 40.0503V40.0503L104.24 33.1659C107.017 39.8114 108.43 46.9474 108.394 54.1497V54.1497Z" fill="#88B14B"/>
</svg>
